<svg viewBox="12.477272727272748 156.25 1341.306818181818 2031.2499999999998" xmlns="http://www.w3.org/2000/svg" overflow="visible" xmlns:xlink="http://www.w3.org/1999/xlink" width="1341.306818181818px" height="2031.2499999999998px">
<g id="Master/Character/Sitting" stroke="none" stroke-width="1" fill="none" fill-rule="evenodd"><g id="Sitting" transform="translate(-81.000000, 637.000000) scale(1 1)"><g id="Sitting/One Leg Up 2" stroke="none" stroke-width="1" fill="none" fill-rule="evenodd"><path d="M822.1619,829.317267 C824.4009,852.677317 819.8229,874.985174 808.9179,893.844835 L805.3699,899.980653 L812.1229,902.342175 C824.4129,906.640597 838.0799,908.730204 853.9059,908.730204 C870.1929,908.730204 887.1299,906.462276 900.7389,904.638673 L909.4519,903.472198 L905.1719,895.9039 C901.7299,889.821283 901.0929,882.450025 900.4179,874.646265 C900.2359,872.549762 900.0489,870.382325 899.8029,868.237547 C886.9079,752.977166 870.6079,636.212386 854.8449,523.292837 C850.6959,493.579241 846.4069,462.85286 842.2459,432.62893 L830.3099,433.089018 C827.0989,489.032548 823.9829,545.921869 820.9699,600.938327 C819.6449,625.13087 818.3189,649.324397 816.9829,673.513984 C812.2199,734.671186 813.8649,784.19122 822.1619,829.317267 M827.0329,1520.4904 C809.5039,1520.4904 791.9409,1518.66483 774.8339,1515.06491 C721.3009,1503.82773 672.6659,1477.31505 631.2819,1453.34713 C629.1689,1452.14913 627.0249,1450.95113 624.8239,1449.71963 C608.6219,1440.65481 588.4589,1429.37626 575.8229,1415.61697 C561.9609,1400.52274 559.5749,1385.48269 568.3159,1368.28408 L569.6989,1365.56296 L568.2539,1362.87238 C559.2029,1346.02647 559.8759,1325.1836 569.8899,1312.18883 L578.3059,1301.26888 L564.4689,1302.73683 C550.5169,1304.21758 536.4549,1306.22345 522.8549,1308.1633 C507.7659,1310.31596 492.1609,1312.54153 476.7929,1314.03115 L472.5219,1314.44592 L471.5399,1318.56109 C470.9929,1320.85168 470.3179,1322.24278 465.5769,1322.24278 C461.4659,1322.24278 455.9409,1321.03887 450.0939,1319.76501 C442.8369,1318.18475 434.6109,1316.39267 426.6789,1316.39267 C423.1899,1316.39267 420.0519,1316.72468 417.0839,1317.41038 L415.3569,1317.80742 L414.1279,1319.0665 C413.3419,1319.87141 412.0039,1320.3709 410.6369,1320.3709 C409.6029,1320.3709 408.6439,1320.08323 408.0029,1319.58176 L406.0649,1318.06554 L403.6059,1318.33548 C360.7629,1323.03981 323.8199,1331.29577 290.6699,1343.57234 L290.5199,1343.62849 L289.8009,1343.93883 C277.8139,1349.11211 265.4209,1354.46174 254.1339,1354.46174 C245.8829,1354.46174 239.1829,1351.65491 233.0469,1345.62845 L231.3129,1343.92701 L228.8669,1343.90336 C204.0489,1343.6748 192.7089,1314.73458 191.1409,1295.33799 L190.9439,1292.89568 L189.0519,1291.30754 C145.7999,1255.01084 120.2659,1205.16077 110.9879,1138.90713 C102.5379,1078.55878 109.0259,1014.9307 116.4869,960.647226 C133.7459,819.970686 151.7469,693.86031 197.5049,574.253232 L199.6429,568.662229 L193.9459,566.614985 C174.1829,559.513672 159.0789,551.040962 147.7699,540.712138 L146.9869,539.994913 L146.0009,539.589996 C129.7929,532.931038 121.8549,508.350327 119.8079,500.976114 L119.6439,500.381054 L119.3579,499.833283 C116.0509,493.489588 115.2879,484.665162 117.2659,475.622022 L117.4779,474.64766 L117.3549,473.657535 C116.2869,465.071528 119.8319,456.095381 123.5849,446.591168 C125.2999,442.249397 127.0719,437.761816 128.3669,433.291969 C132.8189,420.517881 137.2659,407.518183 141.5679,394.94409 C151.2199,366.733907 161.1989,337.563155 171.8299,309.186473 L173.2839,305.305775 L170.0809,302.63096 C164.6129,298.063578 166.4389,292.687348 174.3239,279.832474 C176.1869,276.796091 177.9489,273.923251 179.2889,271.092775 C189.3959,253.628156 200.2279,236.863027 211.4899,221.257478 L211.7219,220.937288 L211.9069,220.590498 C269.6959,112.661967 372.2029,53.2239364 500.5439,53.2239364 L503.1599,53.2288624 L504.6059,52.3589319 C528.6599,37.8942427 545.8309,13.0751139 557.0999,-23.5151705 L557.4599,-24.6816459 L557.3209,-25.8934405 C556.9349,-29.2657761 556.5119,-33.6873484 556.6569,-37.9778893 C557.0239,-48.8436472 561.2829,-58.539974 568.3409,-64.5812132 C581.7319,-76.0430163 602.0609,-77.0026 621.7359,-77.0026 L624.5609,-77.0026 C649.7159,-76.9257545 667.4749,-72.5583681 680.4509,-63.2511948 C695.5269,-52.4376525 703.8589,-34.9818997 705.9239,-9.88691518 C706.5409,-2.37772972 706.5199,5.40140021 706.5009,12.9243784 L706.4959,15.0238371 L706.7489,15.8573153 C708.5569,21.821709 710.6749,27.5526106 713.0429,32.8923882 L715.4789,38.3858569 L721.0189,35.9090671 C724.6019,34.308119 729.1439,33.4844927 734.9079,33.3918841 C736.5699,33.3534613 738.1909,33.3357277 739.8259,33.3357277 C753.2089,33.3357277 767.5249,34.5573743 781.3709,35.7386277 C791.8029,36.6292474 802.5909,37.5504083 813.0329,37.9592658 L813.1759,37.965177 C813.1759,37.965177 814.6179,37.9563102 815.2649,37.9563102 C840.6439,37.9563102 859.0419,41.9473507 873.1629,50.5175952 C888.3679,59.7439823 899.3009,74.5525058 907.5679,97.1204553 C951.9099,226.480017 970.1399,365.817672 986.2199,488.747826 C995.3409,553.03402 998.1149,618.93791 1000.7979,682.671407 C1003.6309,749.942753 1006.5589,819.504687 1016.9279,887.50311 L1017.7469,892.878355 L1023.2529,892.522698 C1047.4839,890.959187 1073.6689,887.590793 1101.3909,884.024373 C1143.5109,878.606764 1187.0649,873.003939 1229.1689,873.003939 C1288.0389,873.003939 1332.6749,884.587907 1365.6059,908.411985 C1388.5639,930.045966 1400.4409,959.336912 1399.9529,993.141054 C1399.2629,1040.90349 1373.9999,1093.70818 1335.5929,1127.667 L1335.4479,1127.8 C1286.9009,1173.66298 1198.2849,1213.44136 1072.0619,1246.03076 C955.9919,1275.99853 835.9319,1292.28486 774.6949,1299.3241 L759.5389,1301.0679 L771.8409,1309.96129 C776.8199,1313.56219 781.3629,1316.73158 785.7299,1319.65269 L788.5469,1321.53541 L791.6329,1320.12066 C800.4329,1316.08529 806.0219,1315.23802 809.1629,1315.23802 C811.9499,1315.23802 815.3119,1315.84293 815.4969,1318.72759 C815.6179,1320.61622 814.2739,1323.42009 811.4369,1323.77477 L796.3729,1325.65452 L808.6729,1334.42673 C816.8889,1340.2867 829.1469,1347.3486 843.3419,1355.52772 C889.7809,1382.28474 959.9609,1422.72124 947.8909,1458.23076 L947.0989,1460.56371 L948.2209,1462.76366 C951.4639,1469.12016 951.7409,1475.0215 949.0649,1480.80364 C943.3349,1493.19547 925.4099,1502.60214 910.1869,1506.42866 L909.9259,1506.49467 L909.6709,1506.58333 C883.1829,1515.81169 855.3789,1520.4904 827.0329,1520.4904" id="Skin" fill="#ffffff"/><path d="M707.455609,1253.82117 C707.925609,1253.09224 708.345609,1252.0678 708.574609,1251.16157 C711.786993,1255.73321 763.178061,1300.77235 814,1339 C861.203945,1374.50624 915.345151,1401.33195 936.364085,1430.933 C944.352102,1442.18256 948.411739,1475.15431 946.875609,1480.69184 C944.586478,1483.59556 930.846145,1491.56361 905.654609,1504.59597 C897.116147,1506.9055 828.585609,1525.49109 798.144609,1519.16617 C786.945609,1517.46304 706.2,1491.61982 696,1487 L609.230637,1436.64847 C607.33472,1435.81662 605.448952,1434.98953 603.574609,1434.16778 L601.037781,1433.15734 C581.686959,1425.41073 557,1409 562.054576,1385.34463 C568,1361 557.333669,1355.67954 559.776271,1339.64172 C561.890191,1325.76198 566.502941,1311.63077 573.875609,1298.1577 C602.355609,1330.19012 638.505609,1327.39262 656.715609,1287.5784 L657.133201,1286.76658 L657.54442,1285.95263 C663.498089,1274.07418 669.127481,1258.98355 683.225609,1254.31369 C691.005609,1249.05359 700.955609,1247.9602 707.455609,1253.82117 Z M447.201338,1164.47908 L448.963701,1168.52621 C457.531432,1188.12597 475.719509,1228.85417 482.945609,1244.92229 C481.335609,1241.94748 479.495609,1239.09087 477.425609,1236.39088 C471.376152,1228.50576 478.473332,1252.33269 478.528786,1277.20392 C478.580216,1300.27063 471.455909,1324.23561 469.814609,1324.63376 C467.795609,1325.12627 439.617377,1311.27442 413.201338,1315.47908 C391.873703,1318.87382 359.5369,1322.69975 327.411743,1331.47009 C301.299474,1338.59888 275.327037,1350.69094 255.520339,1354.7997 C239.428206,1358.1379 236.282732,1340.7012 225.768617,1341.77955 C216.296176,1342.75105 214.771193,1342.51727 212.425609,1340.55895 C199.275609,1329.68513 186.845609,1286.71232 188.085609,1270.56855 C199,1185 367.471338,1157.41636 447.201338,1164.47908 Z" id="Shoes" fill="#ffffff"/><path d="M729.549898,28 L749.693067,28.710686 L751.466661,28.782726 C758.182901,29.0721063 765.156837,29.5605583 774.985715,30.3775441 L777.667049,30.6024878 L797.073548,33.6895331 C802.99207,34.6256999 808.54506,35.4984197 813.905855,36.3344156 L824.450252,37.9696321 L836.943988,39.8838157 L838.319592,40.1023257 C857.028326,43.1240688 869.841061,47.6729433 880.428079,56.8942046 L880.893721,57.3040664 L881.097202,57.485057 L881.28702,57.6803284 C897.456864,74.314709 909.658025,100.470285 919.598615,136.171525 L920.246853,138.519399 L920.831528,140.672729 C924.994094,156.129812 935.610811,209.846027 952.681677,301.821374 L943.900824,302.484628 C942.826407,302.565783 941.762479,302.661469 940.709533,302.771695 C909.156996,306.074714 872.189516,324.196445 847.953158,347.563512 C846.501067,348.963521 845.048002,350.428559 843.59791,351.953774 L842.728243,352.876084 L834.915346,361.229073 C816.920203,637.856611 809.277528,786.030211 811.98732,805.749873 L812.200346,807.275073 L812.44501,808.386764 C822.305966,853.711734 817.868474,888.266463 798.57442,910.237695 L797.985204,910.899636 L797.374584,911.567134 C776.945635,933.59358 742.251136,940.87955 694.596428,933.391383 C693.941115,933.288411 693.294181,933.18436 692.655804,933.079218 L684.75979,931.749162 L685.637412,923.353444 L685.779901,921.959394 C692.029368,860.327373 690.897277,806.403073 680.385495,758.656476 C668.232128,703.453472 643.791779,658.572358 604.940783,624.975682 L603.759067,623.961056 L603.591346,623.819073 L600.619022,627.844928 L592.567222,620.989365 C541.349947,577.467871 451.986437,506.114516 324.476692,406.929299 L355.147346,362.945073 L355.094617,362.892155 C354.790774,362.594095 354.369768,362.234065 353.822428,361.810806 L353.322126,361.432498 L353.07646,361.252109 C350.208611,359.164097 227.879594,304.34894 191.502099,298.264806 L189.742342,297.974368 L187.983466,297.691844 L186.561686,297.469058 L184.325905,297.127518 L174.995976,295.721934 L178.470132,286.94962 C178.935157,285.775422 179.406009,284.594984 179.882892,283.407683 C187.858087,263.551744 195.831046,259.984344 204.467136,243.61955 L205.179346,242.273073 L206.596286,239.407299 C225.818096,201.004145 252.569924,145.292257 310,108 C387,58 476.051784,50.4917822 476.564852,50.7705299 C485.219598,82.1258662 498.697981,108.869023 517,131 C534.842134,152.57488 568.606784,171.21719 581.598782,175.641394 L582.60002,175.97886 L583.625328,176.317253 C618.237993,187.618897 656.009161,187.58074 687.742711,175.870803 L688.521346,175.579073 L689.008546,175.365894 C707.499155,167.122079 720.656369,152.68212 729.093771,132.780485 L729.386186,132.084028 L729.674777,131.383147 C739.14778,108.150473 741.997062,78.6401632 739.307316,47.0117073 L739.211243,45.9075364 L739.066344,44.3275944 L739.058346,44.2330727 L729.549898,28 Z M194.885346,566.443073 L197.794014,567.376998 L199.776336,568.003188 C209.968603,571.205173 223.565654,576.942542 240.731871,581.633211 L258.80597,586.565814 C263.743983,587.922611 267.553848,588.985492 271.293863,590.051868 L276.892147,591.664858 L279.366388,592.393648 L289.021368,595.288848 L284.011327,603.572983 L282.014852,606.883691 C226.547799,699.129186 180.454749,798.040989 144.291673,901.827883 C141.532019,909.748003 138.820182,917.725299 136.158801,925.750155 L134.568049,930.570698 L120,927.302798 C121.294636,916.92198 122.61548,906.823857 123.974216,896.942657 L124.622764,892.262622 C126.698727,877.396011 128.986955,862.077758 131.51863,846.025635 L132.316346,840.986073 L132.811167,837.401716 L133.138233,835.071878 C138.392938,797.907976 144.73258,765.939644 158.656938,702.685384 L165.288593,672.617961 C170.440564,649.137059 180.306148,613.745429 194.885346,566.443073 Z" id="Top" fill="#8766be"/><path d="M914.9835,901.970627 C918.0935,885.008283 912.1945,867.494318 911.1735,850.413769 C895.7335,728.583358 878.6845,606.833719 856.0935,486.068133 C850.5535,457.167136 844.9545,428.384343 838.5345,399.640951 C839.5045,382.23534 840.3545,364.829729 840.9145,347.414268 C872.2645,327.70367 907.6145,314.947435 944.1735,308.515141 C954.0535,363.559031 963.9235,418.56352 970.7745,474.099929 C992.1245,611.561899 979.9445,751.437211 1000.6545,888.741575 C971.9235,891.962647 943.4145,896.730228 914.9835,901.970627 M970.1275,1009.06192 C948.5225,1014.80666 926.8975,1020.30317 905.1195,1025.37316 C866.3655,1034.39512 827.6215,1043.45352 788.9665,1052.87934 C769.6725,1057.58388 750.3355,1062.14756 731.0815,1067.00478 C721.9445,1069.31075 712.8665,1071.87185 703.9255,1074.83977 C699.4635,1076.32126 695.1025,1078.02045 690.7425,1079.76594 C686.9225,1081.29373 683.3185,1083.40073 679.1185,1083.10029 C678.8685,1083.08256 678.7125,1082.84024 678.8355,1082.61467 C681.0325,1078.57503 685.5595,1076.66012 689.5565,1074.61813 C693.9635,1072.36634 698.5555,1070.43369 703.1515,1068.58872 C713.3605,1064.49096 723.9935,1061.48167 734.5985,1058.56202 C773.1425,1047.95416 812.0175,1038.4515 850.8525,1028.94293 C889.8725,1019.39004 928.8945,1010.24101 968.4325,1003.00591 C972.4155,1002.27797 974.1385,1007.99513 970.1275,1009.06192 M778.7445,1335.6826 C780.4735,1335.21963 782.2135,1334.79508 783.9445,1334.3922 C811.6645,1357.47162 942.2135,1417.4013 932.2845,1453.19756 C928.7745,1457.64993 920.3745,1458.66353 915.0635,1460.10169 C905.8135,1462.60368 896.4735,1464.77175 887.0445,1466.48571 C856.5635,1472.03148 824.9945,1472.99681 794.5535,1466.67189 C783.3545,1464.96876 773.2445,1460.19133 763.0445,1455.5715 C730.0845,1441.07175 693.7845,1425.05406 660.9835,1410.6735 C619.3135,1394.15442 546.2235,1361.59795 576.2845,1306.6634 C604.7645,1338.69583 640.9145,1335.89931 659.1245,1296.08409 C665.4045,1283.99768 670.8835,1267.70517 685.6335,1262.81938 C693.4145,1257.55928 703.3645,1256.46589 709.8645,1262.32686 C710.3345,1261.59793 710.7545,1260.5735 710.9835,1259.66726 C718.3135,1270.09881 724.6335,1281.08197 733.2235,1290.61714 C730.2745,1290.77474 699.5745,1313.49857 708.6335,1313.50941 C719.5345,1307.89469 730.3645,1303.21576 742.1335,1300.1917 C750.6645,1308.77039 760.0445,1316.75018 769.7645,1324.12712 C760.3245,1330.36241 751.8435,1337.99645 745.0245,1346.2816 C744.4345,1347.01053 745.1545,1347.95616 746.0345,1347.56116 C756.6245,1342.84283 767.5145,1338.69583 778.7445,1335.6826 M919.2645,1490.47039 C813.2335,1538.09793 700.9835,1485.06352 610.5635,1428.52237 C589.6945,1416.86938 562.2445,1400.3503 566.4635,1372.91701 C581.8345,1395.40542 607.1735,1408.2109 631.4945,1419.31227 C672.3545,1437.78172 713.4835,1455.66015 754.4445,1473.90305 C758.3135,1486.7371 776.8135,1487.22962 787.9945,1490.07736 C837.7645,1499.73073 891.2645,1494.93359 938.1045,1475.68596 C935.3935,1483.71402 926.5245,1487.39707 919.2645,1490.47039 M496.2235,1305.01838 C493.6045,1305.3533 490.9835,1305.65767 488.3645,1305.95417 C488.6335,1302.48684 486.5445,1299.0195 483.1845,1297.94581 C484.6945,1290.59645 485.2535,1283.00181 484.4445,1275.54606 C488.8245,1286.86414 502.9635,1283.42636 511.9445,1280.1649 C524.7745,1276.67787 537.5245,1272.92586 550.2045,1268.92563 C555.2045,1278.21551 560.5035,1287.36651 567.0145,1295.77873 C543.3135,1297.88671 519.8345,1302.07312 496.2235,1305.01838 M485.7945,1269.41815 C485.1645,1270.74893 484.2645,1272.15753 484.2445,1273.7533 C483.6045,1268.24694 482.3545,1262.80854 480.4545,1257.5977 C482.2335,1261.53785 484.0145,1265.478 485.7945,1269.41815 M470.8345,1239.89756 C459.1735,1224.69843 437.6245,1212.27711 417.7045,1216.51179 C416.4235,1216.78858 416.3935,1218.84633 417.7045,1219.10342 C444.4635,1222.73821 467.9635,1243.96478 468.8935,1271.40891 C471.0035,1283.83023 462.3645,1296.02499 465.2745,1307.94394 C464.6945,1307.98335 464.1145,1308.0129 463.5445,1308.0523 C463.3345,1308.85018 463.1435,1309.55842 462.8935,1310.17998 C465.7845,1310.66166 466.6335,1315.31202 463.2235,1316.13946 C461.2045,1316.63197 459.0935,1316.88808 456.9445,1316.99644 C446.0345,1314.05118 434.5245,1313.37051 424.0935,1309.01665 C413.7745,1304.45691 416.3545,1291.64157 412.7135,1282.76639 C410.0445,1272.53086 406.9735,1262.33671 403.1045,1252.51589 C402.8245,1251.72687 401.7545,1251.90517 401.6645,1252.70305 C398.9345,1272.29544 399.0245,1292.22275 399.6845,1311.97176 C396.1045,1312.33721 392.5445,1312.74108 388.9735,1313.18434 C389.2045,1307.66715 372.6545,1240.45903 363.9345,1257.70704 C368.3245,1276.66901 368.8545,1296.47811 369.3245,1315.9917 C343.4345,1320.25691 317.9235,1326.6104 293.1045,1335.25903 C275.6145,1340.55853 254.8135,1356.24033 237.8345,1342.06465 C224.6845,1331.19083 220.2545,1312.21802 221.4945,1296.07424 C238.5935,1200.55517 373.6545,1189.39469 453.3835,1196.45741 C460.9145,1213.83347 468.5845,1231.15043 476.3545,1248.42798 C474.7445,1245.45317 472.9045,1242.59656 470.8345,1239.89756 M198.9045,1294.21252 C197.4445,1272.522 201.0935,1245.52212 217.1645,1229.35667 C253.9445,1198.26003 305.4445,1188.47762 351.4045,1177.21963 C372.8135,1172.99382 394.5145,1170.18646 416.3035,1168.78771 C424.0345,1168.17699 433.8545,1169.92937 439.3135,1163.60641 C442.1245,1170.26527 444.9735,1176.91427 447.8245,1183.56327 C356.3245,1171.57537 165.4235,1213.22176 218.8835,1338.56777 C207.5635,1326.30406 200.0635,1311.37187 198.9045,1294.21252 M135.0245,892.711276 C137.5845,874.094069 140.3835,855.496562 143.3435,836.928607 C155.4445,748.117635 180.4545,661.680602 195.3645,573.470502 C221.1735,581.863021 247.6045,588.255914 273.6645,595.811151 C217.1945,689.724617 171.0045,789.449804 135.0245,892.711276 M347.0675,805.323682 C342.1025,781.721201 336.5345,757.669542 334.0035,733.676001 C333.8895,732.597385 335.5485,732.483121 335.8445,733.430727 C339.9915,746.716911 342.8175,760.491675 346.3155,773.962061 C349.8265,787.479729 353.0905,801.05847 356.5475,814.589929 C357.6515,818.911288 358.7585,823.229692 359.8665,827.549081 C360.5305,827.577647 361.1925,827.600303 361.8515,827.615079 C364.3835,827.674181 365.1425,830.852897 363.1055,832.175802 C362.5105,832.561936 361.9145,832.900789 361.3165,833.203196 C371.9025,874.379729 382.7495,915.46367 394.5875,956.324991 C408.3815,1003.9417 423.9115,1050.98413 436.3235,1098.985 C436.6105,1100.09613 436.0965,1100.87135 435.3445,1101.20725 C441.8005,1123.04848 447.2105,1145.17833 453.1125,1167.18702 C454.3415,1171.76942 447.5735,1174.73931 445.2595,1170.44848 C441.6965,1163.83987 440.9095,1154.80904 439.1655,1147.54735 C437.2005,1139.3676 435.3335,1131.16913 433.4695,1122.96672 C430.5045,1109.9199 427.8445,1096.71449 425.6515,1083.48446 C417.4795,1062.95332 410.1615,1042.17494 403.6855,1021.0055 C389.1825,973.593682 375.8045,925.857784 363.8965,877.748557 C360.3805,863.547273 356.9345,849.326288 353.6465,835.070827 C338.6765,835.301325 323.0345,818.365577 307.9915,827.381625 C307.2955,827.799281 306.5905,826.849704 307.1385,826.294143 C313.1355,820.217448 321.4245,819.687498 329.4775,821.19165 C334.7105,822.168807 339.7275,824.022647 344.8505,825.41943 C347.1075,826.035079 349.4245,826.486226 351.7665,826.822123 C350.1515,819.665827 348.5775,812.50165 347.0675,805.323682 M669.5845,1252.21053 C661.9345,1257.21452 655.6945,1264.61116 651.2945,1272.5614 C623.0935,1346.3407 592.9345,1306.821 555.4635,1267.23235 C587.1735,1255.26414 629.1735,1246.3003 653.4945,1222.51165 C657.7045,1233.03185 662.8545,1243.04968 669.5845,1252.21053 M659.4955,1072.24518 C657.0465,1060.10656 655.0285,1047.89308 653.1925,1035.65104 C651.4305,1023.91038 648.6775,1011.33342 649.1265,999.448944 C649.1435,998.975141 649.8115,998.891413 649.9555,999.33862 C653.7675,1011.18566 654.9095,1024.28666 657.3275,1036.48931 C659.6665,1048.28513 662.2365,1060.03662 664.8255,1071.78123 C670.1415,1095.89199 677.6585,1119.63336 682.2085,1143.88892 C682.6965,1146.48745 679.1855,1147.39959 678.2315,1144.9695 C669.1205,1121.77483 664.3995,1096.56477 659.4955,1072.24518 M143.7335,525.302173 C131.4145,512.033719 121.7335,495.091076 123.6045,477.114143 C131.0045,467.244069 133.4545,454.36963 137.7645,442.962897 C154.6145,395.227984 170.2545,347.127622 188.5935,299.905914 C227.6045,311.90367 265.9835,326.295066 302.1845,345.197934 C308.8435,348.596313 315.4345,352.122747 321.9445,355.777236 C328.7645,359.599181 336.2045,366.238333 344.3835,364.337211 C335.4445,376.994941 317.0345,390.164892 313.9235,404.792697 C313.2545,409.422373 316.5345,413.717136 321.5745,412.682847 C400.4635,468.721625 481.9345,523.578358 556.5035,585.999193 C612.3435,630.208657 655.2135,666.064019 674.3645,737.794443 C687.2745,784.258657 687.3135,832.821001 685.4145,880.595315 C685.0445,889.883233 685.0345,899.389829 684.2845,908.737834 C685.4045,915.7316 683.2745,929.96539 675.4145,930.2215 C675.5935,931.915764 676.1545,933.481974 677.0445,934.861026 C676.7945,935.194954 676.5345,935.511151 676.2645,935.836213 C675.8745,933.925241 675.4945,932.024118 675.1335,930.113146 C669.0145,903.004916 668.1945,871.552672 669.2135,842.691076 C669.6435,834.416762 656.9545,834.613769 656.2445,842.691076 C654.3345,864.509655 652.4235,886.328233 650.5145,908.136961 C648.2235,922.272248 651.8345,940.7614 640.5345,951.508158 C629.0445,940.889455 632.8435,919.94756 633.4045,906.24569 C634.3035,883.895191 635.2745,861.554542 636.1045,839.204044 C636.3645,832.121625 624.6335,830.299305 623.3035,837.499929 C619.5345,858.028108 615.4545,878.497186 611.0635,898.907161 C608.4145,906.79731 606.5935,942.199555 593.3545,936.052921 C585.4635,930.664767 591.1545,899.074617 590.1145,888.61352 C590.6045,867.908034 590.8935,847.232099 592.4145,826.575864 C593.0345,818.242448 579.4635,816.46938 577.6045,824.605789 C574.5845,837.775739 571.6945,850.94569 569.0745,864.204293 C563.3245,886.554792 565.4145,916.854542 544.6545,931.708906 C536.5245,873.650802 548.2235,815.996562 549.8645,758.145315 C548.8835,739.400054 545.6645,720.841949 542.8245,702.323246 C539.6845,681.844318 537.8545,659.552921 545.2045,639.802921 C543.1945,630.957286 535.2945,654.883844 534.5535,656.87362 C528.6045,645.151675 514.1145,644.24544 502.6545,640.590951 C477.1845,632.346188 451.0935,626.130602 425.3245,618.801924 C356.9835,599.820253 288.5635,581.134094 220.1245,562.487335 C192.7845,554.922248 164.0045,545.968258 143.7335,525.302173 M828.0845,834.121251 C818.6545,783.006675 818.9145,731.214393 822.9445,679.53933 C827.3745,599.396687 831.6735,519.234343 836.2745,439.10155 C856.2445,584.138458 877.5345,729.007909 893.8135,874.507784 C894.9735,884.633969 894.7945,895.351176 899.9045,904.383969 C871.6645,908.166512 841.5635,911.978607 814.1045,902.374493 C826.1545,881.540951 830.4045,857.821251 828.0845,834.121251 M215.1435,241.463645 C262.7445,143.738084 359.8035,74.361899 468.6545,59.2317244 C468.7745,59.3499289 468.9045,59.4681334 469.0245,59.5961883 C468.6645,59.9212506 468.3345,60.2758641 468.0345,60.6403279 C470.9635,58.483096 474.9835,61.1919489 473.6845,64.1756272 C475.2945,67.8508017 476.4835,71.6333454 477.9735,75.337086 C478.6045,75.2779838 479.2445,75.2188815 479.8835,75.1203778 C486.3435,87.9455648 489.8435,102.730976 496.5935,115.516762 C533.5345,179.524493 624.6945,205.509779 693.0745,179.671263 C747.3345,156.159405 755.0345,89.2064127 750.1735,37.7382082 C749.9235,34.2708766 748.1645,31.8181334 745.8135,30.3701284 C775.4045,35.1081584 804.9945,39.8855898 834.6145,44.3872107 C848.8835,46.554293 863.5445,49.686712 874.5635,59.4878342 C917.9345,104.119879 925.6735,224.22549 940.2645,286.667011 C905.3545,290.3215 866.3345,310.219256 841.3135,334.342822 C842.4945,306.91938 840.8035,279.633844 837.6435,252.40741 C837.5935,251.07761 835.3745,250.624493 835.1645,252.082348 C828.9145,279.683096 824.1045,307.520253 822.1245,335.799692 C813.8935,449.602049 809.0045,563.629979 801.9545,677.510153 C799.5445,719.423495 796.5345,761.7013 802.5045,803.466887 C821.7235,889.450802 787.8345,931.649804 696.8745,917.356911 C707.9235,808.392074 699.9145,683.715889 608.6645,608.162535 C605.8835,605.681226 602.5445,605.848682 600.0145,607.326238 C525.8245,544.283844 447.5245,485.890827 364.1845,435.042211 C364.7845,424.532847 338.4945,415.243944 331.1335,407.994069 C358.4635,379.684094 379.2745,345.266887 397.4235,310.652672 C399.0245,306.889829 419.8935,269.024991 413.2535,271.408782 C393.4235,300.792448 373.7045,330.363271 350.3545,357.254792 C351.6245,344.853171 319.4945,336.53847 309.6045,330.874505 C271.3935,314.779979 231.4445,302.18135 190.2745,295.659418 C197.6845,277.210652 205.7845,259.036712 215.1435,241.463645 M723.6245,42.1413254 C722.3745,40.0037943 721.1845,37.8170112 720.0445,35.6006771 C723.9045,35.7484327 727.6645,35.8863379 731.4635,36.5167618 C731.2945,42.6338441 731.6335,48.8001783 731.7045,54.9665125 C729.8035,50.4550411 726.0845,46.3375848 723.6245,42.1413254 M1368.4445,903.566388 C1277.2545,837.25367 1127.4735,879.501924 1021.8345,886.318383 C1001.6945,754.254418 1009.9145,620.033221 991.1435,487.752547 C973.8545,355.599929 955.6245,221.605291 912.2045,94.9885823 C894.2845,46.0322232 863.2845,31.4930711 812.2445,31.887086 C786.3435,30.8724975 758.9545,26.72549 733.7845,27.3165125 C728.2645,27.4051658 722.4945,28.1340935 717.5145,30.3602781 C710.5145,14.5799788 706.7135,-2.36266459 704.7945,-19.4333628 C704.6735,-20.516904 703.2945,-20.7139115 702.8835,-19.6796222 C696.9635,-4.81540773 696.3345,11.4081584 699.5535,26.9717494 C701.8835,38.1223728 715.7545,82.0057893 731.8645,64.8365873 C733.1435,100.839704 725.2335,143.836587 689.9635,162.522747 C628.3345,189.394567 543.1435,164.926238 507.4445,107.892572 C500.5445,96.4956895 494.5935,84.368894 486.9545,73.4261135 C540.1845,58.3550411 570.0635,-5.42613092 557.5245,-53.9983254 C549.7745,-16.2221409 535.6435,25.986712 500.4545,47.1453155 C372.3135,46.8596546 265.7745,105.223121 205.5745,217.63559 C193.7945,233.95766 182.9045,250.920004 172.9235,268.177859 C167.5535,279.722498 151.8245,295.778607 165.1735,306.929231 C149.7545,348.084094 136.0745,389.810278 121.6145,431.290203 C117.6435,445.110278 108.5635,459.610029 110.3745,474.13933 C108.4145,483.09332 108.5045,493.682473 112.9945,502.2917 C117.2545,517.638582 126.8135,538.284966 142.6645,544.796064 C156.1145,557.07948 173.1245,565.540951 190.8645,571.914143 C143.5535,695.556039 125.5445,828.900552 109.5145,959.536213 C93.8035,1073.82025 85.6945,1212.83858 184.1335,1295.43298 C186.0445,1319.06502 200.0635,1349.17761 227.7845,1349.43372 C246.9835,1368.28635 270.3835,1357.94346 291.7545,1348.72449 C327.8245,1335.3664 365.6545,1327.9599 403.2445,1323.8326 C407.2745,1326.98472 413.8345,1326.46166 417.4235,1322.78846 C440.1945,1317.53821 471.7535,1338.79532 476.3545,1319.53783 C505.7135,1316.69108 534.7535,1311.35217 564.0845,1308.23847 C551.7235,1324.27586 552.6145,1347.92563 561.9235,1365.25244 C538.2135,1411.89494 593.4445,1438.90467 627.2135,1458.04394 C672.8035,1484.44196 720.4145,1509.49245 772.5535,1520.43523 C818.3935,1530.07874 866.4145,1527.15417 910.6435,1511.74818 C933.8835,1505.90593 966.3435,1486.72823 952.5535,1459.70866 C970.0345,1408.2897 847.2745,1355.00903 811.1645,1329.25917 C825.9235,1327.41813 826.4635,1296.78347 788.0745,1314.38609 C783.4345,1311.28224 778.8745,1308.08086 774.3645,1304.82138 C929.6435,1286.9725 1226.1945,1237.86838 1338.5745,1131.72075 C1400.3135,1077.13983 1435.9345,966.736837 1368.4445,903.566388" id="Ink" fill="#000000"/></g></g><g id="Head" transform="translate(345.000000, 180.000000) scale(0.9978902953586498 1)"><g id="Head/Twists" stroke="none" stroke-width="1" fill="none" fill-rule="evenodd"><path d="M67.9729,102.4005 C73.1589,96.8355 79.7919,92.6895 87.0429,91.3645 C80.4149,94.6755 73.9359,98.1265 67.9729,102.4005 Z M57.8149,150.3845 C56.8979,146.1435 56.2819,141.8615 56.0879,137.5805 C57.2469,139.3425 59.0979,140.5195 61.1769,141.1275 C59.8339,144.1345 58.6919,147.2325 57.8149,150.3845 Z M404.835051,216.877813 C398.849051,191.960813 370.921192,144.033657 364.320299,134.809034 C357.152299,111.968034 396.2459,93.6505 374.9849,75.7895 C365.3589,67.7305 352.6369,64.8785 340.7029,62.0205 C258.0729,42.1765 169.2949,52.1845 92.6589,88.6755 C81.0019,86.2225 68.8569,91.0165 60.3799,99.4365 C20.5549,139.4645 74.8289,211.6865 86.6969,256.8125 C107.0589,307.1295 65.1149,315.5935 69.6129,358.1665 C73.1079,380.1605 95.3849,385.9735 114.1839,389.2975 C117.1969,390.0025 121.2249,390.1085 122.1969,393.2935 C125.2429,411.8845 135.6849,429.6015 149.7039,441.6255 C148.4779,445.2575 149.4139,449.6665 153.7369,452.8565 C192.9049,481.9635 242.292016,496.529913 291.1439,493.9115 C349.361999,490.791067 379.4689,457.4225 386.7339,448.8305 C426.9029,394.5835 422.103119,323.0095 413.909119,258.3605 C408.201016,213.324721 415.439183,261.018001 404.835051,216.877813 Z" id="Skin" fill="#ffffff"/><path d="M225.3217,9.5415 C227.1517,3.8215 232.3317,0.3815 238.2617,1.0915 C243.5117,1.7115 249.1317,6.9215 248.4917,12.6715 C248.3717,13.7815 248.2117,14.8215 248.0217,15.8015 L248.0467,15.81025 L248.0467,15.81025 L248.0717,15.8115 L247.9417,16.1915 C247.5517,18.0215 247.0117,19.6615 246.2117,21.2115 C245.1917,24.1815 244.2117,27.1615 243.2417,30.1515 C244.6417,30.0915 246.0717,30.1715 247.5217,30.4415 C249.0217,26.6015 250.5317,22.7715 252.0317,18.9215 C253.6417,14.8115 254.7717,9.5315 257.9517,6.3515 C262.0217,2.2915 269.0817,1.4515 274.0417,4.3515 C279.2817,7.4115 281.1517,12.8515 280.0117,18.6815 C279.43239,21.6552931 277.445422,23.7248294 274.986877,25.0251205 L274.7217,25.1615 L272.8317,29.6415 C273.4117,29.3915 274.0117,29.1615 274.6617,28.9715 C275.6817,28.6715 276.6817,28.4815 277.6617,28.4015 C280.3617,23.5115 283.3317,18.7615 286.4017,14.1015 C289.9317,8.7415 296.8317,6.4615 302.6217,9.8515 C307.8017,12.8815 310.5817,20.8415 306.8717,26.0715 C304.0517,30.0415 301.3817,34.0915 298.7517,38.1815 C299.2017,38.2615 299.6517,38.3615 300.0817,38.4915 C300.2817,38.2215 300.4917,37.9515 300.7117,37.6815 C303.5817,34.1215 306.9217,31.4515 310.3517,28.4915 C313.5617,25.7115 315.0417,21.3415 319.2617,19.2315 C324.5717,16.5815 330.9717,17.8515 334.1317,23.1315 C340.9117,34.4415 329.5317,42.7015 322.2517,49.5515 C328.5817,45.6015 335.1717,41.9915 341.9317,38.8715 C345.7317,37.1215 349.5917,35.4315 353.5117,33.9715 C359.3217,31.8115 364.0217,32.5025 368.7917,36.5215 C370.9217,38.3215 371.9817,42.2525 371.0017,44.8715 C369.1017,49.8915 366.1017,52.9415 360.8417,54.3915 C357.1417,55.4115 353.3517,56.1015 349.6517,57.1715 C343.4517,58.9515 337.4317,61.1215 331.5917,63.8315 C332.0117,64.0915 332.4117,64.3715 332.7817,64.6915 C337.1417,63.2815 341.5817,62.0615 346.0417,61.0215 C353.438575,59.287125 360.967286,58.11525 368.528956,57.3822788 L371.041055,57.1484247 C380.106521,56.2784643 391.007771,54.6729286 396.5717,63.3515 C398.4017,66.2115 398.6017,70.9315 396.5717,73.7615 C392.6917,79.2015 388.8317,80.2815 382.4117,80.3815 C388.7317,81.0515 395.0417,81.8815 401.3217,82.8515 C405.650271,83.5115 409.978843,84.2596633 414.288522,85.0896924 L416.4417,85.5115 C421.6917,86.5615 427.5517,87.1715 432.0617,90.2115 C441.9017,96.8515 437.2817,109.7815 426.3817,111.1615 C421.1117,111.8215 415.2617,109.5915 410.0917,108.5515 C405.0717,107.5415 400.0317,106.6515 394.9717,105.8715 C392.3517,105.4615 389.7317,105.1015 387.1017,104.7715 C392.4517,105.5415 397.7617,106.6315 402.9317,108.1715 L404.367786,108.60485 C414.362598,111.650948 427.853793,116.50243 430.9717,127.1815 C432.8617,133.6715 427.6917,139.3315 421.4317,139.7115 C415.6117,140.0615 410.7617,136.5915 405.8217,134.0315 C402.2217,132.1715 398.5617,130.7815 394.6817,129.5915 C390.6717,128.3615 386.5817,127.3415 382.4617,126.5115 C385.943518,128.429682 389.334427,130.537946 392.589348,132.896399 L394.085527,134.00174 C402.736936,140.447976 415.9295,150.4281 412.8817,162.5115 C411.9217,166.3215 407.6717,169.9615 403.5917,169.5715 C392.9717,168.5815 387.1117,157.2715 379.1017,151.2115 C377.0117,149.6315 374.7217,148.0715 372.3217,146.5515 C384.4617,161.0315 394.1217,177.7715 401.4717,195.0615 C417.625169,233.099357 422.580714,268.325487 422.69956,309.224756 L422.7017,310.4915 C422.7217,333.0515 422.2117,356.0215 420.0117,378.4815 C417.9717,399.2315 414.2317,419.7115 404.8217,438.5025 C389.0517,470.0115 358.3217,494.5515 324.4317,503.8915 C286.7217,514.2915 244.5717,506.1615 213.6817,482.1615 C205.8017,476.0415 216.2517,462.7525 224.3017,468.4015 C256.4517,490.9515 298.0317,498.0915 334.9317,482.8315 C364.2017,470.7315 387.7717,444.7015 397.7617,414.7315 C404.120396,395.665196 405.971648,375.335659 408.239817,355.465479 L408.3917,354.1415 C410.7917,333.3615 412.1817,312.4415 412.1617,291.5215 C412.1317,252.6715 406.5517,220.6915 389.4617,185.4515 C381.4217,168.8515 370.9917,153.5025 358.5317,140.0315 C354.7517,140.8015 350.7317,139.7215 346.9117,139.3115 C344.9617,139.1015 343.0117,138.9015 341.0617,138.7215 C343.0537,140.0095 345.0073,141.3487 346.92762,142.719132 L349.446292,144.535382 C357.327907,150.179865 367.327478,156.609056 365.3017,167.5215 C364.7517,170.4715 361.8117,173.1815 358.9617,173.8515 C348.6317,176.3115 341.5317,166.2715 334.5517,160.3115 C328.4817,155.1315 322.1317,150.4915 315.6617,145.8415 C314.1917,144.7915 312.7117,143.7415 311.2217,142.7015 C312.6217,144.3335 313.9833,145.9911 315.31162,147.66406 L317.275475,150.153141 C323.217958,157.588482 331.78436,167.252989 326.4917,176.8915 C324.9917,179.6115 321.7917,181.4215 318.6917,181.3615 C308.0317,181.1415 303.7917,169.0415 298.7917,161.4015 C294.4917,154.8515 289.8217,148.6815 284.9917,142.5115 C283.6617,140.8215 282.3217,139.1315 280.9617,137.4415 C258.5717,138.6015 236.2617,141.5615 214.3417,146.2915 C199.2817,149.5415 184.4717,153.7525 169.7717,158.3615 L168.550042,158.750131 C160.594514,161.311565 152.397554,164.589793 146.6617,170.2115 C145.8429,174.0847 146.471444,178.1695 147.25471,182.037622 L147.86518,184.998365 C150.3804,197.37905 152.0942,209.5305 150.8117,222.2415 C149.4817,235.3515 145.5317,247.1415 140.7117,259.3215 C138.4317,265.0615 136.0717,264.0215 135.2617,270.1815 C134.6412,274.8735 135.024975,279.717225 135.448849,284.448601 L135.803076,288.459623 C136.692069,298.966608 137.138469,310.421992 130.2517,319.0915 C129.1817,320.4215 126.8917,319.8915 126.1317,318.5615 C125.8317,318.0315 125.5117,317.5215 125.1617,317.0315 C121.8417,312.2215 116.7517,309.4815 110.9317,308.4215 C110.1917,308.2915 110.4817,307.3015 111.1017,307.2215 C116.0217,306.6415 120.6817,307.8715 124.6417,310.4115 C122.763793,303.917895 108.225529,307.075859 103.44629,308.337768 L103.2817,308.3815 C97.3217,309.9815 91.6817,312.5815 86.7117,316.2615 C76.7117,323.6615 70.9317,335.2015 71.2217,347.6315 C71.5117,359.8515 77.8217,371.1415 88.6617,376.9915 C93.8917,379.8115 99.8417,381.1715 105.7617,381.1115 C111.9417,381.0515 117.4417,378.3415 123.6317,378.7215 C127.2117,378.9415 129.9517,382.7815 127.8817,386.1315 C126.5017,388.3715 124.7017,390.1315 122.6217,391.4815 C127.6917,403.1715 134.1617,414.3215 141.6217,424.6115 C145.7517,430.3215 150.4317,435.5915 155.5817,440.4015 C159.6017,444.1615 168.3117,448.5115 167.8217,454.7815 C167.6517,457.0415 166.4817,458.4215 164.4217,459.2615 C158.017167,461.879767 150.229462,452.864234 145.945791,448.517885 L145.6017,448.1715 C140.2617,442.8515 135.3917,436.9715 131.1517,430.7315 C123.6317,419.6515 118.9617,407.1615 117.0317,394.0415 C106.7617,397.1315 93.1617,394.2315 84.7817,390.4415 C58.4417,378.5415 49.8317,343.0715 65.8417,319.4515 C68.9417,314.8815 72.8217,310.9715 77.2417,307.8115 C76.2717,307.2815 75.3617,306.6015 74.5517,305.7415 C70.0709308,300.981885 66.9030314,294.770716 63.7589571,289.046006 L63.3817,288.3615 C60.5905889,283.3215 57.9575025,278.202488 55.4894641,273.004463 L54.5717,271.0515 C49.0617,259.2015 44.2317,254.0215 40.3017,241.5615 C36.5217,229.5415 33.5417,217.2915 31.6117,204.8315 L31.098823,201.533414 C29.9826333,194.303411 28.9270333,186.572167 29.7417,179.2315 C24.1317,181.0615 18.4917,182.1915 12.9417,179.4415 C9.2817,177.6315 7.2617,172.3515 8.5117,168.5615 C9.4217,165.7715 10.9417,163.5815 12.8717,161.8615 C11.7217,161.2815 10.6417,160.5415 9.6917,159.7215 L8.8617,159.0025 L8.8617,159.0025 C5.5017,156.0815 5.2617,150.5315 7.3017,146.8715 C7.5017,146.5215 7.7017,146.1615 7.8917,145.8115 C9.8317,142.3415 13.8417,140.0715 17.8017,140.1315 C18.4417,140.1415 19.0817,140.1415 19.7317,140.1315 C17.8817,139.7215 16.0717,139.0915 14.3517,138.0315 C6.5917,133.2615 7.5717,120.3315 16.9617,118.0515 C20.9017,117.1015 25.2517,117.4915 29.5917,118.5115 C29.4317,118.4215 29.2717,118.3315 29.1117,118.2315 C25.8317,116.2215 23.0817,112.2915 23.3917,108.2615 C23.7317,103.8015 25.1717,100.6215 29.1117,98.2815 C32.5317,96.2615 37.3717,96.0715 40.7717,98.2815 C43.7217,100.2115 46.6117,102.3415 49.3917,104.6315 C46.6017,101.2015 44.1817,97.4715 43.2017,93.5115 C41.9917,88.5815 44.0117,83.2115 48.4517,80.6115 C51.9917,78.5415 55.7317,78.7715 59.0717,80.3715 C58.8917,77.7815 59.5217,75.1415 61.2417,72.8015 C64.7617,68.0025 71.1617,65.2415 76.7317,68.7415 C77.4617,69.2015 78.4417,69.9915 79.3917,70.9615 C77.5417,65.0715 79.2117,58.8915 85.5217,56.2315 C89.3717,54.6015 94.5817,55.4215 97.9217,58.2315 C95.8017,46.7615 112.7317,38.3315 119.3117,50.1815 C120.805033,52.8659444 122.282564,55.6926111 123.603826,58.5842435 L124.0917,59.6715 L124.1417,59.6515 L123.80545,58.8565 L123.80545,58.8565 L123.4617,58.0615 C121.6317,53.8115 119.3017,49.3915 118.6617,44.7815 C117.7217,37.9615 120.7617,31.4915 128.1817,30.4915 C132.0117,29.9715 136.2717,31.7115 138.8417,34.7525 C137.4517,24.1715 149.2717,16.4815 157.7817,24.3815 C161.8117,28.1215 163.9617,33.5915 166.5217,38.3915 C167.9717,41.1015 169.4517,43.8015 170.9017,46.5215 C171.2717,46.0815 171.6717,45.6415 172.0917,45.2115 C169.9417,38.7715 168.2717,32.1715 166.8617,25.5315 C165.5217,19.2715 168.6517,12.7715 175.1117,11.0025 C180.9817,9.3815 188.3317,13.0025 189.6417,19.2525 C190.5617,23.6515 191.6517,28.0025 192.8517,32.3315 C193.6717,32.1315 194.4817,31.9915 195.2817,31.8915 C195.348367,31.0781667 195.423922,30.2603889 195.508367,29.4470556 L195.823115,26.5543536 C196.52242,19.9449176 197.227753,12.3999211 200.6817,6.7815 C206.5717,-2.8185 221.6717,1.1615 221.8317,12.5115 C221.9217,18.3815 219.5317,24.2015 218.7017,30.0115 C218.3417,32.5415 218.1317,35.1015 218.0117,37.6615 C219.6217,29.1615 221.8317,20.7715 224.3917,12.5115 C224.6917,11.5215 225.0117,10.5315 225.3217,9.5415 Z M95.0416,337.3218 C108.2916,335.2718 120.4016,342.6618 128.2516,353.0118 C129.6816,354.9018 128.7416,357.5718 127.4516,359.1618 C126.5216,360.3318 125.2716,360.4718 123.8616,360.6518 C122.2416,360.8618 120.1916,359.5518 119.4816,358.1418 C114.4316,348.0618 105.4216,341.6918 95.0416,337.7718 C94.8516,337.7018 94.7916,337.3618 95.0416,337.3218 Z M113.409421,156.717337 L113.8107,156.2865 C116.4917,153.5055 112.2547,149.2575 109.5677,152.0445 C106.7387,154.9785 104.8587,158.5425 103.0507,162.1545 C101.3277,165.5985 106.5017,168.6405 108.2317,165.1835 L109.019473,163.612241 C110.255859,161.169068 111.574416,158.755335 113.409421,156.717337 L113.409421,156.717337 Z M76.1987,151.0095 C79.9987,150.3695 78.3877,144.5865 74.6037,145.2245 C69.7017,146.0505 64.8187,146.9895 59.9157,147.8165 C56.1167,148.4565 57.7277,154.2395 61.5117,153.6025 C66.4137,152.7755 71.2967,151.8365 76.1987,151.0095 Z M302.5667,111.5285 C298.8957,110.3035 297.3207,116.0965 300.9717,117.3145 C306.0167,118.9975 311.0207,120.7225 315.8067,123.0595 C319.2637,124.7475 322.3087,119.5745 318.8347,117.8785 C313.5817,115.3135 308.1047,113.3765 302.5667,111.5285 Z M75.3347,103.7525 C71.7497,102.3185 70.1927,108.1195 73.7397,109.5385 L86.6997,114.7215 L86.6997,114.7215 C90.2847,116.1555 91.8417,110.3555 88.2947,108.9365 L75.3347,103.7525 L75.3347,103.7525 Z M347.820662,89.6649702 L347.3477,89.3665 C344.0977,87.2605 341.0867,92.4525 344.3187,94.5475 C346.216167,95.7767 348.523056,96.6104156 350.26047,98.0746994 L350.6237,98.3985 C353.4297,101.0485 357.6807,96.8145 354.8667,94.1555 C352.80795,92.2120625 350.201641,91.1299531 347.820662,89.6649702 L347.820662,89.6649702 Z" id="Ink" fill="#000000"/></g></g><g id="Face" transform="translate(504.000000, 366.000000) scale(1 1)" fill="#000000"><g id="Face/Contempt" stroke="none" stroke-width="1" fill="none" fill-rule="evenodd"><path d="M190.580838,219.822602 C187.280979,224.137269 181.305753,227.441635 174.614228,229.021959 C168.237661,230.527902 161.190418,230.466453 155.108614,228.149072 L154.586539,227.941176 C150.039387,226.052673 145.674617,222.239371 144.017177,218.259853 C143.358193,216.67763 143.135243,215.069584 143.586238,213.568908 C143.991922,212.219001 144.943012,210.976582 146.527174,209.909206 C147.024517,209.574134 147.691645,209.549745 148.327216,209.661813 C149.115834,209.800867 149.893132,210.16984 150.362097,210.668116 C152.964096,213.434928 156.73898,216.132349 161.207084,216.086453 C164.654507,216.051103 167.469871,214.689827 170.200003,213.151437 L172.118441,212.052717 C173.969461,210.996565 175.846656,210.004165 177.970548,209.550964 C181.772426,208.739097 186.383724,210.222313 189.193828,212.669867 C190.419132,213.737086 191.309321,214.991561 191.551236,216.342614 C191.754414,217.477328 191.469083,218.661462 190.580838,219.822602 Z M170.814304,144.367155 C178.365682,148.9572 189.871664,159.660291 181.748119,171.039573 C172.185929,181.073062 158.418535,169.568982 151.634201,164.366134 C145.343449,160.333898 138.275437,170.704507 144.112,175.412823 C193.135736,211.708059 213.030606,145.567387 174.633685,138.970386 C170.406047,138.243425 168.835891,142.947174 170.814304,144.367155 Z M85.623,73.8212 L87.7924418,73.2263619 L90.0045001,72.6293513 L91.5003254,72.2338515 C101.775159,69.5444674 113.108082,67.1776694 123.297,68.3332 C127.013,68.7552 130.029,70.8462 130.555,74.7392 C130.998,78.0242 128.875,82.2622 125.262,82.8462 C113.295,84.7822 101.044,84.1542 89.022,86.1502 C83.035,87.1432 77.094,88.3762 71.13,89.4872 C66.595,90.3332 61.909,90.6302 57.335,91.3142 L58.386,91.4602 C58.754,91.5102 58.662,92.1292 58.299,92.1042 C56.791375,91.9537 55.2814531,91.9302937 53.7692344,92.035991 L53.121,92.0892 C52.134,92.2282 51.552,91.0502 52.432,90.4522 C58.005,86.6712 62.734,82.5732 68.974,79.7862 C74.371,77.3762 79.926,75.3892 85.623,73.8212 Z M179.1621,68.0224 C187.0621,60.0364 203.8621,63.1054 213.2601,66.7584 C218.6241,68.8444 223.7241,71.4814 227.9721,75.4264 L228.386213,75.8144925 L229.024136,76.4279569 C231.891581,79.2352765 235.089211,83.0982889 234.6341,87.1454 C234.5651,87.7624 234.2291,88.4674 233.5321,88.5914 C229.7681,89.2584 226.0711,87.2724 222.5951,86.0774 L220.293037,85.2874616 C216.836083,84.1099289 213.3571,82.9848545 209.7931,82.1724 C205.3611,81.1644 200.8401,80.5814 196.2901,80.6394 C191.6911,80.6994 186.7511,81.9974 182.3701,80.1714 C177.4841,78.1364 174.9511,72.2804 179.1621,68.0224 Z M101.116056,132.429995 C99.1003582,134.488343 96.4383728,135.649706 93.0314637,134.958836 C90.3692151,134.419447 85.3003252,131.742536 81.251062,127.620059 C78.4808238,124.799734 76.1645189,121.275596 75.5348483,117.193133 C75.3886144,116.245027 74.8854838,115.637224 74.2248528,115.254453 C73.7031014,114.952149 73.0151982,114.800275 72.2659115,114.876138 C71.6297705,114.940545 70.9542643,115.170885 70.4322827,115.476318 C69.4393366,116.057332 69.0332625,116.882185 68.9507107,117.498123 C68.1541083,123.441745 70.4499798,129.339186 74.0286493,134.311705 C78.8582802,141.02242 85.9507822,145.940005 90.1194807,147.091006 C97.2532735,149.061815 104.770166,147.49291 110.31224,142.527816 C114.744111,138.55788 117.01573,133.385744 119.123418,128.067181 L119.529847,127.036237 C120.003893,125.829408 120.474351,124.631454 120.972784,123.446204 C121.971768,121.071164 121.651825,119.018235 120.683197,117.41812 C119.610133,115.645482 117.629461,114.397695 115.424424,114.014451 C113.386375,113.660232 111.205318,114.047672 109.483593,115.292567 C108.029146,116.344207 106.856231,118.01047 106.439508,120.474443 C105.761825,124.480999 104.189738,129.077997 101.417669,132.111101 L101.116056,132.429995 Z M223.440775,109.240446 C221.778563,108.374347 220.478145,108.113213 218.634261,108.665656 C217.614596,108.971929 216.606823,109.558916 215.817824,110.347916 C215.035882,111.129857 214.471712,112.102263 214.252419,113.181012 C213.713072,115.843338 212.256412,118.335447 210.18061,119.960058 C208.406384,121.348643 206.16691,122.084626 203.68291,121.669413 C201.002485,121.221959 198.448729,119.502882 196.689869,117.476128 C196.199984,116.910971 195.798335,116.281896 195.409968,115.645177 L195.177941,115.262679 C194.311333,113.831986 193.469024,112.502121 192.273843,111.451439 C191.82079,111.051686 191.138107,110.774816 190.476901,110.774816 C190.208169,110.774816 189.935444,110.818544 189.675563,110.899539 C187.007679,113.577235 186.494623,115.608542 186.580635,117.62333 C186.670832,119.736131 187.503809,121.875322 188.849905,123.871251 C192.007516,128.553207 198.002761,132.391976 202.048399,133.261475 C207.588873,134.452107 213.091225,133.022832 217.502758,129.928348 C222.041966,126.744306 225.405508,121.80078 226.454161,116.229671 C226.706431,114.887916 226.599231,113.439644 226.088238,112.183929 C225.588922,110.956906 224.71878,109.905984 223.440775,109.240446 Z" id="Ink" fill="#000000"/></g></g><g id="Beard" transform="translate(468.000000, 518.000000) scale(1 1)" fill="#000000"><g id="Beard/None" stroke="none" stroke-width="1" fill="none" fill-rule="evenodd" fill-opacity="0"/></g><g id="Mask" transform="translate(370.000000, 480.000000) scale(1 1)" fill="#000000"><g id="Mask/None" stroke="none" stroke-width="1" fill="none" fill-rule="evenodd" fill-opacity="0"/></g><g id="Accessories" transform="translate(392.000000, 421.000000) scale(1 1)" fill="#000000"><g id="Accessories/Glasses 5" stroke="none" stroke-width="1" fill="none" fill-rule="evenodd"><path d="M367.0895,74.4323 C364.2615,82.1283 359.9575,90.1403 354.6945,96.6173 C333.4005,114.6493 312.7095,104.6653 302.2035,80.2263 C298.2115,62.9553 308.8105,44.3513 320.0415,31.6463 C336.2615,15.3893 362.7325,23.9213 370.1905,43.2473 C370.6435,45.7513 370.9175,48.2493 371.0485,50.7393 C370.8935,58.8303 369.9185,65.7453 367.0895,73.4323 M162.4095,58.9113 C190.4615,25.5443 242.9415,23.7603 241.6025,75.1153 C235.5765,140.1193 134.1055,124.1643 162.4095,58.9113 Z M375.9125,31.0763 C374.9295,29.4113 373.8385,27.8003 372.6475,26.2593 C372.2075,25.9973 371.9545,23.6733 370.3365,23.5013 C348.7095,-0.3577 310.7165,13.1793 296.9885,36.9533 C294.4815,39.9593 292.4365,43.4783 290.9285,47.1963 C277.4025,44.7153 261.6335,45.1973 249.0535,50.3063 C236.5795,17.7343 198.8145,14.8263 173.9275,28.7433 C158.4485,36.3563 148.4115,52.2993 133.3575,61.0573 C97.9685,63.6043 59.9875,55.6753 25.2375,64.5523 C-2.1685,70.2503 20.7415,84.1273 25.3375,74.8663 C58.1005,65.1863 96.9155,73.3663 130.9325,71.1853 C134.4695,77.1683 141.2525,82.0643 148.0125,81.8553 C155.3135,146.5763 249.6975,135.8443 252.9535,78.3113 C256.6465,72.4723 261.2395,66.8843 267.8135,63.2463 C270.3305,62.7253 272.7615,62.0483 274.9835,61.0003 C278.7815,60.4643 284.6335,62.0743 288.1275,65.2363 C300.0965,137.0523 369.0515,128.6883 381.3745,65.7743 C381.6195,65.5243 382.3045,64.5863 382.8305,63.0813 C387.0485,57.5043 397.3745,55.4313 395.7245,46.0163 C394.2555,36.5993 382.3635,36.7113 375.9125,31.0763 Z" id="Ink" fill="#000000"/></g></g></g>
</svg>